<?xml version="1.0" standalone="no"?>
<!DOCTYPE svg PUBLIC "-//W3C//DTD SVG 20010904//EN"
 "http://www.w3.org/TR/2001/REC-SVG-20010904/DTD/svg10.dtd">
<svg version="1.0" xmlns="http://www.w3.org/2000/svg"
 width="856.000000pt" height="270.000000pt" viewBox="0 0 856.000000 270.000000"
 preserveAspectRatio="xMidYMid meet">

<g transform="translate(0.000000,270.000000) scale(0.100000,-0.100000)"
fill="#000000" stroke="none">
<path d="M7776 2428 c-9 -12 -16 -28 -16 -36 0 -7 91 -105 202 -218 l202 -205
-714 -714 c-393 -393 -718 -714 -721 -713 -3 2 -253 247 -555 546 l-549 542
162 160 c89 88 168 160 177 160 8 0 167 -150 354 -333 187 -184 356 -347 376
-362 l37 -28 27 20 c56 42 55 44 -245 345 -153 154 -338 336 -411 404 -120
112 -135 123 -154 113 -12 -6 -125 -114 -251 -239 -209 -207 -228 -229 -218
-248 32 -61 1218 -1232 1247 -1232 7 0 118 101 246 224 316 303 1348 1340
1348 1354 0 15 -370 393 -433 444 -55 43 -89 48 -111 16z"/>
<path d="M1950 1685 c0 -80 -2 -145 -5 -145 -3 0 -26 15 -52 34 -66 46 -113
59 -192 54 -106 -8 -172 -52 -222 -148 -20 -38 -24 -60 -24 -140 0 -80 4 -102
24 -140 52 -100 126 -150 232 -158 76 -5 131 14 191 67 20 17 38 31 42 31 3 0
6 -20 6 -45 l0 -45 40 0 40 0 0 390 0 390 -40 0 -40 0 0 -145z m-120 -157 c80
-41 119 -136 100 -239 -21 -108 -79 -159 -183 -159 -71 0 -114 17 -150 59 -35
42 -50 101 -45 177 9 146 148 227 278 162z"/>
<path d="M180 1745 l0 -35 100 0 100 0 0 -330 0 -330 50 0 50 0 2 328 3 327
98 3 97 3 0 34 0 35 -250 0 -250 0 0 -35z"/>
<path d="M3098 1768 c-50 -132 -258 -706 -258 -711 0 -13 79 -7 93 7 8 8 24
41 36 74 l22 59 106 7 c58 3 132 6 163 6 l57 0 29 -77 29 -78 48 -3 c34 -2 47
1 47 10 -1 7 -58 171 -128 363 l-127 350 -56 3 c-39 2 -58 -1 -61 -10z m125
-290 c31 -90 57 -168 57 -174 0 -20 -209 -34 -238 -16 -9 7 -2 38 32 138 52
153 76 214 85 214 3 0 32 -73 64 -162z"/>
<path d="M958 1615 c-82 -30 -145 -91 -170 -164 -7 -20 -12 -74 -13 -121 0
-102 24 -160 87 -214 60 -52 105 -70 185 -74 60 -3 80 0 125 20 117 54 169
127 176 249 8 142 -39 233 -149 288 -53 26 -73 31 -133 30 -39 0 -88 -7 -108
-14z m204 -92 c74 -43 111 -153 84 -247 -30 -102 -87 -146 -187 -146 -112 0
-177 61 -187 175 -9 115 35 205 113 234 42 15 139 7 177 -16z"/>
<path d="M2340 1609 c-72 -33 -111 -68 -139 -128 -22 -48 -26 -69 -26 -151 0
-107 12 -138 74 -203 61 -66 103 -82 206 -82 73 0 98 4 131 22 66 35 101 70
130 129 45 91 35 249 -21 324 -31 42 -95 86 -144 100 -61 17 -161 12 -211 -11z
m206 -78 c68 -31 104 -99 104 -197 0 -105 -52 -180 -142 -204 -170 -46 -304
150 -218 320 46 90 157 126 256 81z"/>
<path d="M3600 1200 l0 -430 50 0 50 0 0 180 0 180 48 -34 c62 -44 112 -59
181 -54 69 5 124 31 172 80 55 57 73 101 77 195 9 183 -84 299 -249 311 -83 6
-130 -9 -184 -59 l-42 -39 -6 41 c-6 48 -18 59 -64 59 l-33 0 0 -430z m398
318 c84 -56 109 -193 54 -299 -95 -182 -354 -95 -354 119 0 89 31 145 107 194
44 28 139 21 193 -14z"/>
<path d="M4316 1608 c-3 -13 -6 -206 -6 -430 l0 -408 50 0 50 0 2 185 3 184
49 -38 c111 -88 254 -81 351 15 63 64 88 136 83 239 -9 172 -112 275 -274 275
-69 0 -120 -19 -169 -62 l-44 -39 -3 48 -3 48 -41 3 c-36 3 -42 0 -48 -20z
m384 -80 c120 -61 137 -271 30 -362 -40 -33 -65 -39 -145 -34 -55 3 -69 8 -96
33 -51 49 -73 101 -74 176 0 56 4 73 30 114 56 90 161 120 255 73z"/>
</g>
</svg>
